<?xml version="1.0" standalone="no"?>
<!DOCTYPE svg PUBLIC "-//W3C//DTD SVG 20010904//EN"
 "http://www.w3.org/TR/2001/REC-SVG-20010904/DTD/svg10.dtd">
<svg version="1.0" xmlns="http://www.w3.org/2000/svg"
 width="120%" height="120%" viewBox="0 0 1902.000000 1330.000000"
 preserveAspectRatio="xMidYMid meet">

<g transform="translate(0.000000,1330.000000) scale(0.100000,-0.100000)"
   fill="#FFFFFF" stroke="none">
<path d="M11070 10839 c-702 -48 -1268 -608 -1329 -1314 -10 -116 2 -329 20
-351 5 -6 24 -15 42 -18 270 -55 507 -49 737 18 452 131 811 481 960 936 56
170 74 301 67 490 -3 85 -9 165 -12 176 -6 18 -22 25 -91 38 -47 10 -118 19
-157 22 -40 3 -85 6 -102 7 -16 2 -77 0 -135 -4z"/>
<path d="M8270 10503 c-30 -1 -96 -10 -146 -19 l-91 -15 -7 -61 c-22 -215 18
-439 114 -631 114 -227 321 -430 545 -533 174 -80 330 -110 524 -101 112 5
232 25 247 40 3 3 8 59 11 125 21 447 -227 869 -629 1073 -173 87 -388 133
-568 122z"/>
<path d="M8280 8973 c-329 -32 -645 -172 -878 -388 -151 -141 -256 -288 -358
-500 -86 -180 -133 -334 -170 -550 -25 -145 -25 -451 -1 -563 21 -95 15 -131
-31 -175 -44 -41 -95 -48 -352 -45 l-235 3 -5 407 -5 406 -30 43 c-44 63 -87
80 -208 86 -129 7 -206 -8 -252 -48 -69 -61 -66 -8 -63 -1080 l3 -965 27 -41
c45 -68 90 -83 246 -83 141 0 171 7 216 48 65 61 66 66 66 500 l0 392 268 0
c286 0 332 6 437 54 124 56 233 204 258 349 11 68 11 75 -25 292 -10 63 -4
239 12 346 53 343 194 644 399 850 167 166 352 263 592 310 93 18 148 23 299
22 185 0 239 -6 400 -45 235 -57 438 -196 542 -371 22 -37 54 -77 71 -89 39
-28 111 -34 158 -14 36 15 89 68 89 88 0 26 99 145 165 197 130 103 234 152
415 196 306 73 647 51 915 -60 424 -175 711 -640 756 -1223 11 -150 30 -207
76 -238 66 -43 147 -36 208 17 54 48 60 84 46 262 -25 326 -113 614 -265 867
-281 467 -726 729 -1271 747 -320 11 -641 -49 -866 -162 -76 -39 -214 -135
-278 -195 l-54 -50 -43 37 c-90 77 -177 141 -250 183 -154 88 -399 159 -619
180 -102 9 -324 11 -405 3z"/>
<path d="M4496 7689 c-49 -12 -100 -50 -124 -92 -15 -29 -18 -76 -22 -437 l-5
-405 -125 -5 c-139 -6 -163 -15 -201 -77 -26 -42 -28 -116 -5 -161 9 -17 33
-44 53 -59 35 -27 43 -28 159 -32 l123 -3 3 -407 3 -408 29 -41 c47 -68 89
-82 244 -82 89 0 143 4 165 14 41 17 88 66 104 108 16 45 18 1904 2 1963 -16
58 -75 110 -139 124 -60 13 -209 13 -264 0z"/>
<path d="M5172 7689 c-53 -10 -94 -39 -124 -87 l-23 -37 -3 -953 c-2 -652 1
-966 8 -993 13 -48 63 -107 107 -125 22 -10 77 -14 171 -14 135 0 139 1 184
29 30 19 52 44 67 73 l21 44 0 960 c0 909 -1 961 -19 999 -25 55 -70 91 -131
104 -59 13 -195 13 -258 0z"/>
<path d="M13092 7689 c-53 -10 -94 -39 -124 -87 -23 -37 -23 -40 -28 -442 l-5
-405 -405 -5 c-393 -5 -407 -6 -459 -28 -70 -30 -127 -70 -178 -125 -49 -53
-58 -70 -153 -287 -153 -349 -589 -1240 -651 -1331 -191 -282 -523 -462 -824
-446 -185 9 -335 85 -483 242 -84 90 -111 110 -159 120 -65 13 -107 -9 -206
-111 -162 -169 -308 -242 -498 -252 -289 -14 -606 154 -801 425 -54 75 -311
587 -555 1108 -46 99 -96 192 -109 206 -31 33 -101 54 -149 45 -79 -15 -148
-123 -127 -199 22 -76 561 -1190 623 -1287 192 -299 507 -526 840 -607 106
-26 385 -25 484 1 147 39 301 119 412 212 28 24 54 44 57 44 4 0 31 -20 61
-45 121 -98 254 -168 390 -205 114 -31 328 -38 450 -15 358 67 689 296 898
622 59 92 510 1020 635 1308 87 198 103 227 141 252 34 23 36 23 402 23 l369
0 0 -382 c0 -239 4 -397 11 -421 12 -45 67 -110 108 -127 19 -8 77 -10 173 -8
137 3 147 4 185 30 24 16 49 44 62 70 21 44 21 46 21 1004 0 909 -1 961 -19
999 -25 55 -70 91 -131 104 -59 13 -195 13 -258 0z"/>
<path d="M13747 7686 c-57 -16 -93 -47 -118 -101 -18 -38 -19 -88 -19 -999 0
-958 0 -960 21 -1004 13 -26 38 -54 62 -70 38 -25 48 -27 176 -30 80 -2 151 1
172 7 47 14 105 78 119 130 7 28 10 335 8 995 l-3 954 -30 43 c-47 67 -89 83
-225 86 -74 2 -132 -2 -163 -11z"/>
<path d="M14431 7689 c-51 -10 -104 -48 -129 -92 -16 -30 -17 -100 -20 -996
l-2 -965 25 -50 c14 -31 39 -61 61 -76 35 -23 47 -25 181 -28 131 -3 148 -2
189 18 28 14 56 38 72 63 l27 41 3 408 3 408 107 0 c154 1 216 34 242 131 12
44 6 80 -21 125 -36 59 -61 68 -199 74 l-125 5 -5 405 c-4 361 -7 408 -22 437
-24 44 -74 80 -128 92 -53 12 -197 12 -259 0z"/>
<path d="M6020 3031 c-1 -39 -1 -282 -1 -541 0 -258 0 -486 1 -505 l0 -35 273
0 c200 0 290 4 342 15 326 69 523 397 429 717 -55 184 -212 338 -404 395 -43
12 -117 17 -347 20 l-293 5 0 -71z m606 -225 c72 -34 119 -78 154 -148 26 -52
30 -72 30 -137 -1 -128 -56 -218 -168 -273 -64 -32 -71 -33 -209 -36 l-143 -4
0 311 0 311 143 0 c128 0 147 -2 193 -24z"/>
<path d="M7603 3088 c-12 -16 -31 -68 -204 -543 -210 -579 -209 -575 -209
-585 0 -6 59 -10 144 -10 l144 0 35 98 35 97 199 3 200 2 16 -42 c9 -24 26
-69 37 -100 l21 -58 146 0 c134 0 145 1 141 18 -9 30 -400 1096 -409 1115 -9
15 -26 17 -148 17 -99 0 -141 -4 -148 -12z m199 -535 c25 -71 44 -131 41 -135
-2 -5 -47 -8 -99 -8 -52 0 -94 3 -94 8 0 17 93 262 100 262 4 0 28 -57 52
-127z"/>
<path d="M8300 3088 c0 -7 11 -53 24 -103 94 -347 249 -921 262 -972 l17 -63
148 0 c132 0 148 2 153 18 3 9 36 123 75 252 38 129 79 268 91 308 11 39 24
72 29 72 4 0 40 -109 79 -242 40 -134 83 -280 97 -326 l26 -83 147 3 147 3 73
270 c40 149 108 403 152 565 44 162 80 299 80 303 0 4 -61 6 -136 5 -109 -2
-139 -6 -145 -18 -5 -8 -45 -160 -90 -337 -45 -178 -85 -323 -89 -323 -3 0
-39 116 -79 258 -40 141 -84 294 -98 340 l-24 83 -142 -3 -141 -3 -93 -324
c-101 -356 -101 -356 -109 -348 -4 4 -130 492 -168 650 l-6 27 -140 0 c-105 0
-140 -3 -140 -12z"/>
<path d="M10160 2680 c0 -390 1 -424 19 -475 55 -157 203 -258 396 -272 198
-13 378 84 453 245 l27 57 0 430 0 430 -130 0 -130 0 -5 -400 c-4 -307 -8
-405 -18 -423 -21 -36 -87 -62 -160 -62 -72 0 -116 16 -152 55 l-25 27 -5 401
-5 402 -132 3 -133 3 0 -421z"/>
<path d="M11407 3094 c-4 -4 -7 -263 -7 -576 l0 -568 135 0 135 0 0 310 c0
171 4 310 9 310 4 0 66 -97 136 -216 l128 -215 36 3 c35 3 38 7 156 206 67
111 127 208 133 214 9 9 12 -60 12 -300 l0 -312 135 0 135 0 0 575 0 576 -136
-3 -136 -3 -147 -244 c-80 -134 -150 -244 -154 -245 -5 -1 -75 109 -156 244
l-146 245 -131 3 c-71 1 -133 -1 -137 -4z"/>
<path d="M12907 3093 c-4 -3 -7 -262 -7 -575 l0 -568 135 0 135 0 0 45 c0 25
0 250 0 500 0 250 0 489 0 530 l0 75 -128 0 c-71 0 -132 -3 -135 -7z"/>
</g>
</svg>
