<?xml version="1.0"?>
<svg width="4999" height="3496" xmlns="http://www.w3.org/2000/svg" xmlns:svg="http://www.w3.org/2000/svg" version="1.1">
 <g class="layer">
  <title>Layer 1</title>
  <g id="surface1">
   <path d="m2908.9,646.7c-184.47,12.61 -333.2,159.76 -349.22,345.29c-2.63,30.48 0.52,86.45 5.25,92.23c1.32,1.58 6.31,3.94 11.04,4.73c70.94,14.46 133.22,12.88 193.66,-4.73c118.78,-34.42 213.11,-126.39 252.26,-245.96c14.72,-44.67 19.45,-79.1 17.61,-128.76c-0.79,-22.34 -2.37,-43.36 -3.15,-46.25c-1.58,-4.73 -5.78,-6.57 -23.92,-9.98c-12.35,-2.63 -31,-5 -41.25,-5.79c-10.51,-0.78 -22.34,-1.57 -26.8,-1.84c-4.21,-0.52 -20.24,0 -35.48,1.06zm0,0" fill="#ffffff" fill-rule="nonzero" id="svg_1"/>
   <path d="m2173.14,734.99c-7.89,0.26 -25.23,2.63 -38.37,4.99l-23.91,3.95l-1.84,16.02c-5.78,56.5 4.73,115.36 29.96,165.82c29.95,59.65 84.34,112.99 143.21,140.06c45.72,21.02 86.71,28.9 137.69,26.54c29.43,-1.32 60.96,-6.57 64.91,-10.51c0.78,-0.79 2.1,-15.5 2.89,-32.85c5.52,-117.46 -59.65,-228.35 -165.29,-281.96c-45.46,-22.86 -101.96,-34.95 -149.25,-32.06zm0,0" fill="#ffffff" fill-rule="nonzero" id="svg_2"/>
   <path d="m2175.76,1137.04c-86.45,8.41 -169.49,45.2 -230.71,101.96c-39.68,37.05 -67.27,75.68 -94.07,131.39c-22.6,47.3 -34.95,87.77 -44.68,144.52c-6.57,38.11 -6.57,118.52 -0.26,147.95c5.52,24.96 3.94,34.43 -8.15,45.99c-11.56,10.77 -24.96,12.61 -92.49,11.82l-61.75,-0.79l-1.32,-106.95l-1.31,-106.69l-7.88,-11.29c-11.57,-16.56 -22.87,-21.03 -54.66,-22.6c-33.9,-1.84 -54.13,2.1 -66.22,12.61c-18.13,16.03 -17.34,2.1 -16.55,283.8l0.79,253.58l7.09,10.77c11.82,17.87 23.65,21.82 64.64,21.82c37.05,0 44.93,-1.84 56.76,-12.62c17.08,-16.03 17.34,-17.34 17.34,-131.39l0,-103.01l70.43,0c75.15,0 87.24,-1.57 114.83,-14.19c32.58,-14.71 61.23,-53.6 67.79,-91.7c2.89,-17.88 2.89,-19.72 -6.56,-76.74c-2.63,-16.55 -1.06,-62.8 3.15,-90.92c13.92,-90.13 50.98,-169.23 104.85,-223.36c43.88,-43.62 92.49,-69.11 155.56,-81.46c24.43,-4.73 38.89,-6.04 78.57,-5.78c48.61,0 62.8,1.58 105.1,11.82c61.76,14.98 115.1,51.51 142.43,97.49c5.78,9.73 14.19,20.24 18.66,23.39c10.24,7.36 29.16,8.93 41.51,3.68c9.46,-3.94 23.39,-17.87 23.39,-23.12c0,-6.84 26.01,-38.11 43.36,-51.77c34.16,-27.07 61.49,-39.95 109.05,-51.51c80.41,-19.18 170.01,-13.4 240.44,15.77c111.41,45.99 186.83,168.18 198.65,321.38c2.89,39.41 7.89,54.39 19.97,62.54c17.35,11.3 38.63,9.46 54.66,-4.47c14.19,-12.61 15.77,-22.07 12.09,-68.85c-6.57,-85.66 -29.69,-161.34 -69.63,-227.82c-73.84,-122.72 -190.78,-191.57 -333.99,-196.3c-84.09,-2.89 -168.44,12.88 -227.56,42.57c-19.97,10.25 -56.24,35.48 -73.05,51.24l-14.19,13.14l-11.3,-9.72c-23.65,-20.24 -46.51,-37.06 -65.7,-48.09c-40.46,-23.13 -104.84,-41.78 -162.65,-47.3c-26.81,-2.37 -85.14,-2.89 -106.43,-0.79zm0,0" fill="#ffffff" fill-rule="nonzero" id="svg_3"/>
   <path d="m1181.43,1474.45c-12.88,3.15 -26.28,13.14 -32.59,24.18c-3.94,7.61 -4.73,19.96 -5.78,114.83l-1.31,106.42l-32.85,1.32c-36.52,1.57 -42.83,3.94 -52.81,20.23c-6.84,11.04 -7.36,30.48 -1.32,42.31c2.37,4.46 8.68,11.56 13.93,15.5c9.19,7.1 11.3,7.36 41.78,8.41l32.32,0.79l0.79,106.95l0.79,107.21l7.62,10.78c12.35,17.87 23.39,21.55 64.11,21.55c23.39,0 37.58,-1.05 43.36,-3.68c10.78,-4.47 23.13,-17.35 27.33,-28.38c4.2,-11.83 4.73,-500.33 0.53,-515.84c-4.21,-15.24 -19.71,-28.9 -36.53,-32.58c-15.76,-3.42 -54.92,-3.42 -69.37,0zm0,0" fill="#ffffff" fill-rule="nonzero" id="svg_4"/>
   <path d="m1359.06,1474.45c-13.92,2.62 -24.7,10.25 -32.58,22.86l-6.04,9.72l-0.79,250.43c-0.53,171.33 0.26,253.84 2.1,260.94c3.41,12.61 16.55,28.12 28.12,32.85c5.78,2.63 20.23,3.68 44.93,3.68c35.47,0 36.53,-0.27 48.35,-7.63c7.89,-4.99 13.67,-11.56 17.61,-19.18l5.51,-11.56l0,-252.27c0,-238.86 -0.26,-252.53 -4.99,-262.51c-6.57,-14.46 -18.39,-23.92 -34.42,-27.33c-15.5,-3.42 -51.24,-3.42 -67.8,0zm0,0" fill="#ffffff" fill-rule="nonzero" id="svg_5"/>
   <path d="m3440.23,1474.45c-13.93,2.62 -24.7,10.25 -32.59,22.86c-6.04,9.72 -6.04,10.51 -7.35,116.15l-1.32,106.42l-106.42,1.32c-103.27,1.31 -106.95,1.57 -120.61,7.35c-18.4,7.89 -33.37,18.4 -46.78,32.85c-12.87,13.93 -15.24,18.4 -40.2,75.42c-40.21,91.71 -154.78,325.84 -171.07,349.76c-50.19,74.1 -137.43,121.4 -216.52,117.2c-48.62,-2.37 -88.03,-22.34 -126.92,-63.6c-22.07,-23.64 -29.17,-28.9 -41.78,-31.53c-17.08,-3.42 -28.12,2.37 -54.13,29.17c-42.57,44.41 -80.94,63.59 -130.86,66.22c-75.95,3.68 -159.25,-40.47 -210.48,-111.68c-14.2,-19.71 -81.73,-154.25 -145.84,-291.16c-12.09,-26.02 -25.23,-50.45 -28.65,-54.13c-8.14,-8.68 -26.54,-14.19 -39.15,-11.83c-20.76,3.94 -38.89,32.32 -33.37,52.3c5.78,19.97 147.41,312.7 163.7,338.19c50.46,78.57 133.23,138.22 220.74,159.51c27.85,6.83 101.16,6.56 127.18,-0.27c38.62,-10.24 79.09,-31.27 108.26,-55.7c7.36,-6.31 14.19,-11.57 14.98,-11.57c1.05,0 8.15,5.26 16.03,11.83c31.79,25.75 66.74,44.15 102.48,53.87c29.96,8.14 86.19,9.98 118.24,3.94c94.08,-17.61 181.06,-77.78 235.98,-163.45c15.5,-24.18 134.01,-268.03 166.86,-343.71c22.86,-52.03 27.06,-59.65 37.05,-66.22c8.94,-6.05 9.46,-6.05 105.63,-6.05l96.97,0l0,100.38c0,62.81 1.05,104.33 2.89,110.64c3.15,11.82 17.61,28.9 28.38,33.37c4.99,2.1 20.23,2.63 45.46,2.1c36,-0.79 38.62,-1.05 48.61,-7.88c6.31,-4.21 12.87,-11.57 16.29,-18.4c5.52,-11.56 5.52,-12.08 5.52,-263.83c0,-238.86 -0.26,-252.53 -4.99,-262.51c-6.57,-14.46 -18.4,-23.92 -34.43,-27.33c-15.5,-3.42 -51.23,-3.42 -67.79,0zm0,0" fill="#ffffff" fill-rule="nonzero" id="svg_6"/>
   <path d="m3612.34,1475.23c-14.97,4.21 -24.43,12.36 -31,26.55c-4.73,9.98 -5,23.12 -5,262.51c0,251.75 0,252.27 5.52,263.83c3.42,6.83 9.99,14.19 16.3,18.4c9.98,6.57 12.61,7.09 46.24,7.88c21.03,0.53 39.68,-0.26 45.2,-1.84c12.35,-3.68 27.59,-20.5 31.27,-34.16c1.84,-7.36 2.63,-88.03 2.1,-261.47l-0.79,-250.69l-7.88,-11.29c-12.35,-17.61 -23.39,-21.82 -59.12,-22.6c-19.45,-0.53 -34.69,0.52 -42.84,2.88zm0,0" fill="#ffffff" fill-rule="nonzero" id="svg_7"/>
   <path d="m3792.08,1474.45c-13.4,2.62 -27.33,12.61 -33.9,24.18c-4.2,7.88 -4.46,26.27 -5.25,261.72l-0.53,253.58l6.57,13.14c3.68,8.14 10.25,16.03 16.03,19.97c9.2,6.05 12.35,6.57 47.56,7.36c34.43,0.79 38.89,0.53 49.67,-4.73c7.36,-3.68 14.71,-9.99 18.92,-16.56l7.09,-10.77l0.79,-107.21l0.79,-107.22l28.12,0c40.46,-0.26 56.76,-8.93 63.59,-34.42c3.15,-11.56 1.58,-21.02 -5.52,-32.85c-9.46,-15.5 -16.03,-17.87 -52.29,-19.44l-32.85,-1.32l-1.32,-106.42c-1.05,-94.87 -1.83,-107.22 -5.78,-114.83c-6.3,-11.57 -19.44,-21.03 -33.63,-24.18c-13.93,-3.16 -51.76,-3.16 -68.06,0zm0,0" fill="#ffffff" fill-rule="nonzero" id="svg_8"/>
   <path d="m1581.89,2698.47c-0.26,10.24 -0.26,74.1 -0.26,142.16c0,67.8 0,127.71 0.26,132.71l0,9.19l71.74,0c52.56,0 76.21,-1.05 89.87,-3.94c85.66,-18.13 137.43,-104.32 112.73,-188.41c-14.45,-48.35 -55.71,-88.82 -106.16,-103.8c-11.3,-3.15 -30.75,-4.47 -91.18,-5.25l-77,-1.32l0,18.66zm159.25,59.12c18.91,8.94 31.27,20.5 40.46,38.89c6.83,13.67 7.89,18.93 7.89,36c-0.27,33.64 -14.72,57.29 -44.15,71.74c-16.82,8.41 -18.66,8.67 -54.92,9.46l-37.58,1.05l0,-163.44l37.58,0c33.63,0 38.63,0.52 50.72,6.3zm0,0" fill="#ffffff" fill-rule="nonzero" id="svg_9"/>
   <path d="m1997.87,2683.49c-3.16,4.21 -8.15,17.87 -53.61,142.69c-55.18,152.15 -54.92,151.1 -54.92,153.72c0,1.58 15.5,2.63 37.84,2.63l37.84,0l9.19,-25.75l9.2,-25.49l52.29,-0.79l52.56,-0.52l4.2,11.03c2.37,6.31 6.84,18.13 9.73,26.28l5.51,15.24l38.37,0c35.21,0 38.1,-0.26 37.05,-4.73c-2.36,-7.88 -105.11,-288 -107.47,-293c-2.37,-3.94 -6.83,-4.46 -38.89,-4.46c-26.02,0 -37.05,1.05 -38.89,3.15zm52.29,140.59c6.57,18.65 11.56,34.42 10.77,35.47c-0.52,1.32 -12.35,2.1 -26.01,2.1c-13.67,0 -24.71,-0.78 -24.71,-2.1c0,-4.46 24.44,-68.85 26.28,-68.85c1.05,0 7.36,14.98 13.67,33.38zm0,0" fill="#ffffff" fill-rule="nonzero" id="svg_10"/>
   <path d="m2181.02,2683.49c0,1.84 2.89,13.93 6.3,27.06c24.71,91.19 65.43,242.02 68.85,255.43l4.47,16.55l38.89,0c34.68,0 38.89,-0.52 40.2,-4.73c0.79,-2.36 9.47,-32.32 19.71,-66.22c9.99,-33.9 20.76,-70.42 23.92,-80.94c2.89,-10.24 6.3,-18.91 7.62,-18.91c1.05,0 10.5,28.64 20.75,63.59c10.52,35.21 21.81,73.57 25.49,85.66l6.83,21.81l38.63,-0.78l38.63,-0.79l19.18,-70.95c10.51,-39.16 28.38,-105.9 39.94,-148.47c11.57,-42.57 21.03,-78.57 21.03,-79.62c0,-1.05 -16.03,-1.58 -35.74,-1.32c-28.64,0.53 -36.52,1.58 -38.1,4.73c-1.32,2.11 -11.83,42.05 -23.65,88.56c-11.83,46.77 -22.34,84.88 -23.39,84.88c-0.79,0 -10.25,-30.49 -20.76,-67.8c-10.51,-37.05 -22.07,-77.26 -25.75,-89.35l-6.31,-21.81l-37.31,0.79l-37.05,0.79l-24.44,85.14c-26.54,93.55 -26.54,93.55 -28.64,91.45c-1.05,-1.05 -34.16,-129.29 -44.15,-170.81l-1.58,-7.09l-36.78,0c-27.6,0 -36.79,0.79 -36.79,3.15zm0,0" fill="#ffffff" fill-rule="nonzero" id="svg_11"/>
   <path d="m2669.78,2790.7c0,102.49 0.26,111.42 4.99,124.82c14.45,41.26 53.34,67.8 104.06,71.48c52.03,3.41 99.33,-22.07 119.03,-64.38l7.1,-14.98l0,-225.99l-68.32,0l-1.32,105.11c-1.05,80.67 -2.1,106.43 -4.73,111.16c-5.52,9.46 -22.86,16.29 -42.04,16.29c-18.92,0 -30.48,-4.21 -39.94,-14.45l-6.57,-7.1l-1.31,-105.37l-1.32,-105.64l-34.68,-0.79l-34.95,-0.79l0,110.63zm0,0" fill="#ffffff" fill-rule="nonzero" id="svg_12"/>
   <path d="m2997.46,2681.91c-1.05,1.05 -1.84,69.11 -1.84,151.36l0,149.26l70.95,0l0,-81.46c0,-44.93 1.05,-81.46 2.36,-81.46c1.05,0 17.34,25.49 35.74,56.76l33.63,56.5l9.46,-0.79c9.2,-0.79 9.99,-1.84 40.99,-54.13c17.61,-29.17 33.38,-54.66 34.95,-56.24c2.37,-2.36 3.16,15.77 3.16,78.83l0,81.99l70.94,0l0,-302.46l-35.73,0.79l-35.74,0.79l-38.63,64.12c-21.02,35.21 -39.41,64.12 -40.47,64.38c-1.31,0.26 -19.7,-28.64 -40.99,-64.12l-38.36,-64.38l-34.42,-0.79c-18.66,-0.26 -34.95,0.27 -36,1.05zm0,0" fill="#ffffff" fill-rule="nonzero" id="svg_13"/>
   <path d="m3391.62,2682.18c-1.06,0.78 -1.84,68.84 -1.84,151.09l0,149.26l70.95,0l0,-11.82c0,-6.57 0,-65.7 0,-131.39c0,-65.7 0,-128.5 0,-139.27l0,-19.71l-33.64,0c-18.66,0 -34.69,0.79 -35.47,1.84zm0,0" fill="#ffffff" fill-rule="nonzero" id="svg_14"/>
   <path d="m2072.52,1189.15c4.41,0 4.95,0 6.12,0c0.62,0 1.25,0 2.55,0c1.33,0 1.99,0 2.66,0c0.66,0.01 1.94,0.05 2.55,0.12c0.6,0.06 2.24,0.41 2.72,0.62c0.92,0.39 1.73,0.94 2.16,1.18c0.85,0.49 1.79,0.91 2.87,1.13c0.57,0.12 1.17,0.19 2.42,0.25c0.65,0.03 1.3,0.03 2.63,0.04c1.33,0 1.99,0 2.63,0c0.63,0 1.85,0 2.42,0c1.55,0 2.02,-0.01 2.97,0.04c0.52,0.03 1.73,0.15 2.44,0.25c1.76,0.25 2.82,0.45 4,0.66c1.27,0.23 2.61,0.47 4.01,0.72c1.43,0.25 2.87,0.5 4.31,0.72c2.77,0.42 4.07,0.55 5.32,0.66c1.19,0.1 2.33,0.17 3.43,0.21c1.07,0.04 2.11,0.06 3.13,0.07c2.01,0.01 3.01,0 4.01,0c1,0 2,0 3,0c1,0 2,0 3,0c2,0 3,0 3.99,0c0.97,0 1.91,0 2.81,0c0.85,0 1.64,0 2.35,0c1.19,0 1.64,0 2,0c0.29,0 0.52,0 0.71,0c0.15,0 0.28,0 0.41,0c0.28,0 0.47,0 0.68,0c0.24,0 0.5,0 0.78,0c0.3,0 0.61,0 0.94,0c0.66,0 1,0 2,0c0.67,0 2,0 2.67,0c0.7,0 1.45,0 2.28,0c1.45,0 2,0 2.59,0c1.27,0 1.95,0 2.67,0c0.75,0 2.35,0 3.2,0c0.88,0 1.79,0 2.71,0c0.95,0 1.92,0 2.9,0c0.99,0 2.99,0 3.98,0c0.99,0 1.97,0.01 2.93,0.04c0.93,0.03 1.83,0.07 2.69,0.15c0.81,0.08 2.28,0.34 2.9,0.55c0.58,0.19 1.11,0.44 1.57,0.71c0.44,0.27 0.84,0.57 1.21,0.9c0.36,0.32 1.01,1.01 1.71,1.65c0.71,0.66 1.1,0.99 2.04,1.48c0.51,0.27 1.73,0.65 2.43,0.79c0.75,0.14 1.54,0.23 2.36,0.32c0.83,0.09 1.66,0.16 2.48,0.26c0.79,0.1 2.26,0.32 3.45,0.77c0.54,0.2 1.49,0.72 1.95,0.97c0.89,0.48 1.83,0.91 2.9,1.13c0.57,0.12 1.17,0.16 2.42,0.25l0.65,0.02l0.66,0.01" fill="#ffffff" id="svg_17"/>
   <polyline fill="none" id="svg_18" opacity="0.5" points="2235.8486527537225,1202.4847054942752 " stroke-linecap="round"/>
  </g>
 </g>
</svg>